<?xml version="1.0" encoding="utf-8"?>
<!-- Generator: Adobe Illustrator 22.0.0, SVG Export Plug-In . SVG Version: 6.00 Build 0)  -->
<svg width="35" height="35" version="1.1" id="Layer_1" xmlns="http://www.w3.org/2000/svg" xmlns:xlink="http://www.w3.org/1999/xlink" x="0px" y="0px"
	 viewBox="0 0 602.1 757.4" style="enable-background:new 0 0 602.1 757.4;" xml:space="preserve">
<style type="text/css">
	.st0{display:none;}
	.st1{display:inline;fill:#E30052;}
	.st2{display:inline;}
	.st3{fill:#10D1F4;}
	.st4{fill:#FFFFFF;}
</style>
<title>Logo Glippe1</title>
<g class="st0">
	<path class="st1" d="M-349.4,568.9v-539c0-15.7,12.7-28.5,28.5-28.5l0,0c15.7,0,28.5,12.8,28.5,28.5c0,0,0,0,0,0.1v539
		c0,15.7-12.8,28.4-28.5,28.4l0,0C-336.6,597.3-349.3,584.6-349.4,568.9z"/>
	<path class="st1" d="M-146.5,82.5c-11.8,0-21.7-4-29.7-12c-7.8-7.6-12.2-18-12-28.9c-0.2-10.8,4.2-21.1,12-28.5
		c8.1-7.8,18-11.7,29.7-11.7c11.8,0,21.7,3.7,29.7,11.2c7.9,7.2,12.3,17.5,12,28.1c0,11.8-3.9,21.7-11.7,29.7
		S-134.2,82.5-146.5,82.5z M-175.4,568.9V204.2c0-15.8,12.8-28.5,28.5-28.5l0,0l0,0c15.7,0,28.5,12.8,28.5,28.5v364.7
		c0,15.7-12.8,28.5-28.5,28.5l0,0C-162.6,597.4-175.3,584.6-175.4,568.9z"/>
	<path class="st1" d="M397.8,274.1c-19.2-32.4-45.6-57.5-79.3-75.5c-33.6-18-71.6-26.9-114-26.9c-39,0-74.1,8.3-105.2,24.9
		s-55.6,40.8-73.7,72.7S-1.6,340.1-1.5,386.2v26.6l-1,311.9v0.1c0,15.7,13.8,28.5,29.6,28.5c15.7,0,28.4-12.7,28.5-28.4l0,0V542.3
		c13.1,13.5,28.2,24.9,44.7,33.8c31.1,16.9,65.9,25.3,104.3,25.3c42.4,0,80.4-9.1,114-27.3s60.1-43.4,79.3-75.5
		c19.2-32.2,28.8-69.6,28.8-112.4C426.6,343.9,417,306.5,397.8,274.1z M348.7,472.5c-13.9,24.9-32.6,44.2-56.2,57.9
		s-50.3,20.5-80.3,20.5s-56.9-6.8-80.8-20.5c-23.8-13.6-42.6-32.9-56.2-57.9c-13.7-24.9-20.5-53.7-20.5-86.3
		c0-32.7,6.8-61.3,20.5-86c13.1-24,32.5-44,56.2-57.8c23.8-13.9,50.8-20.9,80.8-20.9s56.8,7,80.3,20.9
		c23.6,13.9,42.3,33.2,56.2,57.8c13.9,24.6,20.9,53.3,20.9,86C369.6,418.8,362.7,447.6,348.7,472.5L348.7,472.5z"/>
	<path class="st1" d="M942.8,274.1c-19.2-32.4-45.7-57.5-79.3-75.5s-71.6-26.9-114-26.9c-39,0-74,8.3-105.1,24.9
		s-55.7,40.8-73.8,72.7s-27.2,70.8-27.2,116.9c0,9.2,0.1,25.7,0.1,25.7l-1,311.8v0.1c0,15.7,13.8,29.5,29.5,29.5
		s28.5-12.7,28.5-28.5V542.4c13.1,13.5,28.2,24.9,44.7,33.8c31.1,16.9,65.9,25.3,104.3,25.3c42.4,0,80.4-9.1,114-27.3
		s60-43.4,79.3-75.5c19.2-32.2,28.8-69.7,28.8-112.5C971.6,343.9,962,306.5,942.8,274.1z M893.7,472.5
		c-13.9,24.9-32.7,44.2-56.2,57.9s-50.3,20.5-80.3,20.5s-56.9-6.8-80.7-20.5c-23.8-13.6-42.6-32.9-56.2-57.9
		c-13.6-24.9-20.5-53.7-20.5-86.3c0-32.7,6.8-61.3,20.5-86c13.1-24,32.6-44,56.2-57.8c23.8-13.9,50.7-20.9,80.7-20.9
		s56.8,7,80.3,20.9c23.6,13.9,42.3,33.2,56.2,57.8s20.9,53.3,20.9,86C914.6,418.8,907.7,447.6,893.7,472.5L893.7,472.5z"/>
	<path class="st1" d="M1473.4,274.1c-17.7-32.4-41.9-57.6-72.7-75.5s-66-26.9-105.6-26.9c-39.1,0-74.3,9.2-105.6,27.7
		c-31,18.2-56.6,44.4-73.9,76c-17.9,32.1-26.9,69-26.9,110.8s9.4,78.8,28.1,111.2s44.7,57.9,77.9,76.3
		c33.2,18.5,71.8,27.7,115.7,27.7c33.8,0,64.7-5.9,92.8-17.7c19.7-8.1,37.8-19.6,53.6-33.9c10-9.4,10.4-25,1.1-35
		c-9-9.6-24-10.4-34.1-1.9c-11.9,10.1-25.3,18.3-39.8,24.2c-22.2,9.1-46.2,13.7-71.9,13.7c-32.7,0-61.7-6.8-87.1-20.5
		s-45.2-32.7-59.4-57c-11.9-20.4-18.8-43.6-20.7-69.5h354.5c0-3.2,0.1-6.3,0.4-9.2s0.4-5.8,0.4-8.4
		C1499.9,343.9,1491,306.5,1473.4,274.1z M1144.8,361.3c2.1-23.6,8.2-45,18.5-64.3c12.9-24.1,30.8-42.8,53.8-56.2s49-20.1,77.9-20.1
		c29.4,0,55.4,6.7,77.9,20.1s40.3,32,53.4,55.8c10.7,19.3,17,40.9,19,64.7L1144.8,361.3z"/>
	<path class="st1" d="M-520.4,378.2l-0.5,21.3c0.4-5,0.5-10.1,0.5-15.3C-520.3,382.3-520.3,380.2-520.4,378.2z M-465.2,374.2
		l-0.1-0.2c0.1,2.1,0.1,4.3,0.1,6.5c0,0.4,0,0.9,0,1.3V374.2L-465.2,374.2z M-520.4,378.2l-0.5,21.3c0.4-5,0.5-10.1,0.5-15.3
		C-520.3,382.3-520.3,380.2-520.4,378.2z M-520.4,378.2l-0.5,21.3c0.4-5,0.5-10.1,0.5-15.3C-520.3,382.3-520.3,380.2-520.4,378.2z"
		/>
	<path class="st1" d="M-465.2,380.5c0-2.2,0-4.4-0.1-6.5c-1-41.8-10.2-77.6-27.6-107.2c-7.1-12.2-15.5-23.5-25.1-33.8
		c-0.4-0.5-0.9-1-1.3-1.4c-14-14.6-30.3-26.8-48.4-35.9c-31.4-16-66.8-24-106-24c-42.1,0-79.9,8.8-113.6,26.5s-60.1,42.3-79.5,74
		c-19.4,31.8-29.1,68.3-29.1,109.7s9.7,78.1,29,110c19.3,32,45.8,57,79.5,74.9s71.5,26.9,113.6,26.9c39.2,0,74.6-8.3,106-24.8
		c17-8.9,32.5-20.4,46-34.1v15.9c0,52.1-12.5,90.5-37.5,115.3c-25,24.7-64.1,37.1-117.2,37.1c-31.4,0.2-62.6-5.1-92.1-15.6
		c-18.3-6.4-35.8-15.1-52-25.7c-4.4-2.9-9.5-4.5-14.7-4.5c-14.5,0-26.2,11.8-26.2,26.3c0,8.5,4.1,16.5,11,21.4
		c18.4,13.1,40.3,23.6,65.6,31.7c35.6,11.2,72.7,16.9,110.1,16.7c69.2,0,121.4-16.9,156.8-50.7c35.3-33.8,53-86.8,53.1-159.1V381.9
		C-465.2,381.4-465.2,381-465.2,380.5z M-521.9,492.9c0.5,0.5,1,1,1.6,1.4c0,0-0.5,0.4-1.6,1c-5.3,3.1-23,11.8-40.1,3.5
		c-10.4,11.3-22.4,21-35.7,28.7c-23.9,13.9-51.3,20.8-82.2,20.8c-30.3,0-57.6-6.9-81.8-20.8c-23.9-13.6-43.5-33.6-56.7-57.8
		c-13.6-24.7-20.3-53.1-20.3-85.4s6.8-60.6,20.3-84.9c13.2-24,32.8-43.9,56.7-57.4c24.2-13.9,51.4-20.8,81.8-20.8
		c30.9,0,58.2,6.9,82.2,20.8c23.7,13.7,43.3,33.5,56.6,57.4c13,22.8,19.8,49.1,20.7,78.9v0.1c0.1,2,0.1,4,0.1,6
		c0,5.2-0.2,10.3-0.5,15.3c-1.1,16.6-4.5,32.9-10.2,48.6c-0.2,3.3-0.3,7.1-0.3,11.3C-531.4,480.5-524.9,489.7-521.9,492.9z"/>
	<path class="st1" d="M-729.9,382.7c0,14.1-11.5,25.6-25.6,25.6s-25.6-11.5-25.6-25.6s11.5-25.6,25.6-25.6S-729.9,368.6-729.9,382.7
		L-729.9,382.7z"/>
	<path class="st1" d="M-655,382.7c0,14.1-11.5,25.6-25.6,25.6s-25.6-11.5-25.6-25.6s11.5-25.6,25.6-25.6S-655,368.6-655,382.7
		L-655,382.7z"/>
	<path class="st1" d="M-580.1,382.7c0,14.2-11.5,25.6-25.6,25.6s-25.6-11.5-25.6-25.6c0-14.2,11.5-25.6,25.6-25.6l0,0
		C-591.6,357.1-580.1,368.5-580.1,382.7L-580.1,382.7z"/>
</g>
<g class="st0">
	<g class="st2">
		<g>
			<path class="st3" d="M511.7,90.9c4,0,8,1.3,11.4,4c7.9,6.3,9.3,17.9,2.9,25.8L104.5,660c-3.6,4.6-9,6.9-14.4,6.9
				c-4,0-8-1.3-11.4-4c-7.9-6.3-9.3-17.9-2.9-25.8L497.3,97.8C500.9,93.2,506.3,90.9,511.7,90.9 M511.7,1.9L511.7,1.9L511.7,1.9
				c-32.9,0-63.5,14.7-83.9,40.4l-0.3,0.3l-0.3,0.3L5.8,582.1c-17.6,22.4-25.6,50.3-22.3,78.6c3.2,28.5,17.4,54,39.8,71.8
				c18.9,15,42.6,23.3,66.8,23.3c32.9,0,63.5-14.7,83.9-40.4l0.3-0.3l0.3-0.3L596,175.7c17.6-22.4,25.6-50.3,22.3-78.6
				c-3.2-28.5-17.4-54-39.8-71.8C559.6,10.2,535.9,1.9,511.7,1.9L511.7,1.9z"/>
		</g>
		<g>
			<path class="st3" d="M90.1,90.8c5.4,0,10.8,2.4,14.4,6.9L257.9,294c6.3,7.9,5,19.5-2.9,25.8c-3.4,2.7-7.4,4-11.4,4
				c-5.4,0-10.8-2.4-14.4-6.9L75.7,120.7c-6.3-7.9-5-19.5,2.9-25.8C82,92.2,86,90.8,90.1,90.8 M90.1,1.9c-24.2,0-48,8.3-66.9,23.4
				C-22.9,62-30.7,129.3,5.8,175.6l153.3,196.1l0.3,0.3l0.3,0.3c20.5,25.7,51.1,40.4,83.9,40.4c24.2,0,47.9-8.3,66.8-23.3
				c22.4-17.8,36.6-43.3,39.8-71.8c3.2-28.3-4.7-56.2-22.3-78.6L174.5,43l-0.3-0.3l-0.3-0.3C153.5,16.6,122.9,1.9,90.1,1.9L90.1,1.9
				z"/>
		</g>
		<g>
			<path class="st3" d="M358.2,433.9c5.4,0,10.8,2.4,14.4,6.9L526,637.1c6.3,7.9,5,19.5-2.9,25.8c-3.4,2.7-7.4,4-11.4,4
				c-5.4,0-10.8-2.4-14.4-6.9L343.8,463.7c-6.3-7.9-5-19.5,2.9-25.8C350.2,435.2,354.2,433.9,358.2,433.9 M358.2,345
				c-24.2,0-47.9,8.3-66.8,23.4c-46.1,36.7-53.9,104.1-17.4,150.4l153.3,196.1l0.3,0.3l0.3,0.3c20.5,25.7,51.1,40.4,83.9,40.4
				c24.2,0,47.9-8.3,66.8-23.3c22.4-17.8,36.6-43.3,39.8-71.8c3.2-28.3-4.7-56.2-22.3-78.6L442.7,386.1l-0.3-0.3l-0.3-0.3
				C421.6,359.7,391,345,358.2,345L358.2,345z"/>
		</g>
	</g>
	<g class="st2">
		<g>
			<path class="st4" d="M90.1,667c-4,0-8-1.3-11.4-4c-7.9-6.3-9.3-17.9-2.9-25.8L497.3,97.8c6.3-7.9,17.9-9.3,25.8-2.9
				c7.9,6.3,9.3,17.9,2.9,25.8L104.5,660C100.8,664.6,95.5,667,90.1,667z"/>
		</g>
		<g>
			<path class="st4" d="M243.5,323.9c4,0,8-1.3,11.4-4c7.9-6.3,9.3-17.9,2.9-25.8L104.5,97.8c-6.3-7.9-17.9-9.3-25.8-2.9
				c-7.9,6.3-9.3,17.9-2.9,25.8L229.2,317C232.8,321.5,238.1,323.9,243.5,323.9z"/>
		</g>
		<g>
			<path class="st4" d="M511.7,667c4,0,8-1.3,11.4-4c7.9-6.3,9.3-17.9,2.9-25.8L372.6,440.8c-6.3-7.9-17.9-9.3-25.8-2.9
				c-7.9,6.3-9.3,17.9-2.9,25.8L497.3,660C500.9,664.6,506.3,667,511.7,667z"/>
		</g>
	</g>
</g>
<g>
	<g>
		<path class="st3" d="M24.1,757.3c-5.3,0-10.5-1.7-15-5.3c-10.4-8.3-12.2-23.5-3.8-33.9L559.1,9.4c8.3-10.4,23.5-12.2,33.9-3.8
			c10.4,8.3,12.2,23.5,3.8,33.9L43,748.1C38.1,754.1,31.2,757.3,24.1,757.3z"/>
	</g>
	<g>
		<path class="st3" d="M225.6,306.5c5.3,0,10.5-1.7,15-5.3c10.4-8.3,12.2-23.5,3.8-33.9L43,9.4C34.7-0.9,19.5-2.8,9.1,5.6
			C-1.3,13.9-3.1,29.1,5.3,39.5l201.5,257.9C211.6,303.3,218.5,306.5,225.6,306.5z"/>
	</g>
	<g>
		<path class="st3" d="M578,757.3c5.3,0,10.5-1.7,15-5.3c10.4-8.3,12.2-23.5,3.8-33.9l-201.5-258c-8.3-10.4-23.5-12.2-33.9-3.8
			c-10.4,8.3-12.2,23.5-3.8,33.9l201.5,257.9C563.8,754.1,570.9,757.3,578,757.3z"/>
	</g>
</g>
</svg>
